<?xml version="1.0" encoding="utf-8"?>
<!-- Generator: Adobe Illustrator 19.2.0, SVG Export Plug-In . SVG Version: 6.00 Build 0)  -->
<svg version="1.1" id="plus" xmlns="http://www.w3.org/2000/svg" xmlns:xlink="http://www.w3.org/1999/xlink" x="0px" y="0px"
	 viewBox="0 0 216 216" enable-background="new 0 0 216 216" xml:space="preserve">
<g>
	<path fill="none" d="M108,8C52.8592,8,8,52.8592,8,108s44.8592,100,100,100s100-44.8592,100-100S163.1408,8,108,8z M160,112h-48v48
		c0,2.2088-1.7912,4-4,4s-4-1.7912-4-4v-48H56c-2.2088,0-4-1.7912-4-4s1.7912-4,4-4h48V56c0-2.2088,1.7912-4,4-4s4,1.7912,4,4v48h48
		c2.2088,0,4,1.7912,4,4S162.2088,112,160,112z"/>
	<path d="M108,0C48.4492,0,0,48.4492,0,108s48.4492,108,108,108s108-48.4492,108-108S167.5508,0,108,0z M108,208
		C52.8592,208,8,163.1408,8,108S52.8592,8,108,8s100,44.8592,100,100S163.1408,208,108,208z"/>
	<path d="M160,104h-48V56c0-2.2088-1.7912-4-4-4s-4,1.7912-4,4v48H56c-2.2088,0-4,1.7912-4,4s1.7912,4,4,4h48v48
		c0,2.2088,1.7912,4,4,4s4-1.7912,4-4v-48h48c2.2088,0,4-1.7912,4-4S162.2088,104,160,104z"/>
</g>
</svg>
