<?xml version="1.0" encoding="utf-8"?>
<!-- Generator: Adobe Illustrator 19.2.0, SVG Export Plug-In . SVG Version: 6.00 Build 0)  -->
<svg version="1.1" id="cameraadd" xmlns="http://www.w3.org/2000/svg" xmlns:xlink="http://www.w3.org/1999/xlink" x="0px" y="0px"
	 viewBox="0 0 216 176" enable-background="new 0 0 216 176" xml:space="preserve">
<g>
	<path fill="none" d="M108,60c-24.2616,0-44,19.7385-44,44c0,24.2617,19.7384,44,44,44c24.2616,0,44-19.7383,44-44
		C152,79.7385,132.2616,60,108,60z M132,108h-20v20c0,2.2089-1.7912,4-4,4c-2.2088,0-4-1.7911-4-4v-20H84c-2.2088,0-4-1.7911-4-4
		c0-2.2087,1.7912-4,4-4h20V80c0-2.2087,1.7912-4,4-4c2.2088,0,4,1.7913,4,4v20h20c2.2088,0,4,1.7913,4,4
		C136,106.2089,134.2088,108,132,108z"/>
	<path fill="none" d="M196.0236,44h-42.424c-1.8124,0-3.3984-1.2187-3.8652-2.9687L140.9276,8H75.0724l-8.8068,33.0313
		C65.7988,42.7813,64.2128,44,62.4004,44h-42.424C13.3732,44,8,49.3769,8,55.9885v100.0232C8,162.6233,13.3732,168,19.9764,168
		h176.0472C202.6268,168,208,162.6233,208,156.0117V55.9885C208,49.3769,202.6268,44,196.0236,44z M84,16h48v8H84V16z M108,156
		c-28.674,0-52-23.3259-52-52c0-28.6739,23.326-52,52-52c28.674,0,52,23.3261,52,52C160,132.6741,136.674,156,108,156z"/>
	<path d="M196.0236,36H156.672l-8.8068-33.0311C147.3984,1.2189,145.8124,0,144,0H72c-1.8124,0-3.3984,1.2189-3.8652,2.9689
		L59.328,36H19.9764C8.9608,36,0,44.9669,0,55.9885v100.0232C0,167.0333,8.9608,176,19.9764,176h176.0472
		C207.0392,176,216,167.0333,216,156.0117V55.9885C216,44.9669,207.0392,36,196.0236,36z M208,156.0117
		C208,162.6233,202.6268,168,196.0236,168H19.9764C13.3732,168,8,162.6233,8,156.0117V55.9885C8,49.3769,13.3732,44,19.9764,44
		h42.424c1.8124,0,3.3984-1.2187,3.8652-2.9687L75.0724,8h65.8552l8.8068,33.0313c0.4668,1.75,2.0528,2.9687,3.8652,2.9687h42.424
		C202.6268,44,208,49.3769,208,55.9885V156.0117z"/>
	<rect x="84" y="16" width="48" height="8"/>
	<path d="M108,52c-28.674,0-52,23.3261-52,52c0,28.6741,23.326,52,52,52c28.674,0,52-23.3259,52-52C160,75.3261,136.674,52,108,52z
		 M108,148c-24.2616,0-44-19.7383-44-44c0-24.2615,19.7384-44,44-44c24.2616,0,44,19.7385,44,44C152,128.2617,132.2616,148,108,148z
		"/>
	<path d="M132,100h-20V80c0-2.2087-1.7912-4-4-4c-2.2088,0-4,1.7913-4,4v20H84c-2.2088,0-4,1.7913-4,4c0,2.2089,1.7912,4,4,4h20v20
		c0,2.2089,1.7912,4,4,4c2.2088,0,4-1.7911,4-4v-20h20c2.2088,0,4-1.7911,4-4C136,101.7913,134.2088,100,132,100z"/>
</g>
</svg>
