<?xml version="1.0" encoding="utf-8"?>
<!-- Generator: Adobe Illustrator 19.2.0, SVG Export Plug-In . SVG Version: 6.00 Build 0)  -->
<svg version="1.1" id="socialchat" xmlns="http://www.w3.org/2000/svg" xmlns:xlink="http://www.w3.org/1999/xlink" x="0px" y="0px"
	 viewBox="0 0 240 184" enable-background="new 0 0 240 184" xml:space="preserve">
<g>
	<circle fill="none" cx="168" cy="108" r="4"/>
	<circle fill="none" cx="32" cy="56" r="4"/>
	<circle fill="none" cx="128" cy="108" r="4"/>
	<circle fill="none" cx="72" cy="56" r="4"/>
	<path fill="none" d="M216.004,60h-96.012C111.1755,60,104,67.1756,104,75.996v95.4648l22.2383-18.5352
		c0.7188-0.5976,1.6248-0.9256,2.5624-0.9256h87.2033c8.8203,0,15.996-7.1756,15.996-15.996V75.996
		C232,67.1756,224.8243,60,216.004,60z M128,120c-6.6173,0-12-5.3828-12-12s5.3827-12,12-12c6.6171,0,12,5.3828,12,12
		S134.6171,120,128,120z M168,120c-6.6173,0-12-5.3828-12-12s5.3827-12,12-12c6.6171,0,12,5.3828,12,12S174.6171,120,168,120z
		 M208,120c-6.6173,0-12-5.3828-12-12s5.3827-12,12-12c6.6171,0,12,5.3828,12,12S214.6171,120,208,120z"/>
	<circle fill="none" cx="208" cy="108" r="4"/>
	<path d="M88.6015,100H32.8007c-0.9376,0-1.8436,0.328-2.5624,0.9256L8,119.4608V23.996C8,15.1756,15.1755,8,23.992,8h96.012
		C128.8243,8,136,15.1876,136,24.0236v20.07c0,2.2112,1.7891,4,4,4c2.2107,0,4-1.7888,4-4v-20.07C144,10.7772,133.2343,0,120.004,0
		H23.992C10.7615,0,0,10.7656,0,23.996V128c0,1.5508,0.8983,2.9648,2.3047,3.6212C2.8435,131.8748,3.4219,132,4,132
		c0.9179,0,1.828-0.3164,2.5623-0.9256L34.2499,108h54.3516c2.2108,0,4-1.7892,4-4S90.8123,100,88.6015,100z"/>
	<path d="M216.004,52h-96.012C106.7615,52,96,62.7656,96,75.996V180c0,1.5508,0.8983,2.9648,2.3047,3.6212
		C98.8435,183.8748,99.4219,184,100,184c0.9179,0,1.828-0.3164,2.5623-0.9256L130.2499,160h85.7541
		C229.2343,160,240,149.2344,240,136.004V75.996C240,62.7656,229.2343,52,216.004,52z M232,136.004
		c0,8.8204-7.1757,15.996-15.996,15.996h-87.2033c-0.9376,0-1.8436,0.328-2.5624,0.9256L104,171.4608V75.996
		C104,67.1756,111.1755,60,119.992,60h96.012C224.8243,60,232,67.1756,232,75.996V136.004z"/>
	<path d="M128,96c-6.6173,0-12,5.3828-12,12s5.3827,12,12,12c6.6171,0,12-5.3828,12-12S134.6171,96,128,96z M128,112
		c-2.2073,0-4-1.7928-4-4s1.7927-4,4-4c2.2071,0,4,1.7928,4,4S130.2071,112,128,112z"/>
	<path d="M168,96c-6.6173,0-12,5.3828-12,12s5.3827,12,12,12c6.6171,0,12-5.3828,12-12S174.6171,96,168,96z M168,112
		c-2.2073,0-4-1.7928-4-4s1.7927-4,4-4c2.2071,0,4,1.7928,4,4S170.2071,112,168,112z"/>
	<path d="M208,96c-6.6173,0-12,5.3828-12,12s5.3827,12,12,12c6.6171,0,12-5.3828,12-12S214.6171,96,208,96z M208,112
		c-2.2073,0-4-1.7928-4-4s1.7927-4,4-4c2.2071,0,4,1.7928,4,4S210.2071,112,208,112z"/>
	<path d="M20,56c0,6.6172,5.3827,12,12,12c6.6171,0,12-5.3828,12-12s-5.3829-12-12-12C25.3827,44,20,49.3828,20,56z M36,56
		c0,2.2072-1.7929,4-4,4c-2.2073,0-4-1.7928-4-4s1.7927-4,4-4C34.2071,52,36,53.7928,36,56z"/>
	<path d="M60,56c0,6.6172,5.3827,12,12,12c6.6171,0,12-5.3828,12-12s-5.3829-12-12-12C65.3827,44,60,49.3828,60,56z M76,56
		c0,2.2072-1.7929,4-4,4c-2.2073,0-4-1.7928-4-4s1.7927-4,4-4C74.2071,52,76,53.7928,76,56z"/>
</g>
</svg>
