<?xml version="1.0" encoding="utf-8"?>
<!-- Generator: Adobe Illustrator 19.2.0, SVG Export Plug-In . SVG Version: 6.00 Build 0)  -->
<svg version="1.1" id="landscapepictureframe" xmlns="http://www.w3.org/2000/svg" xmlns:xlink="http://www.w3.org/1999/xlink"
	 x="0px" y="0px" viewBox="0 0 200 200" enable-background="new 0 0 200 200" xml:space="preserve">
<g>
	<path fill="none" d="M146.8576,87.3164c0,1.34-0.0704,2.6756-0.2112,4.004C150.0724,86.3592,152,80.3984,152,74.172
		C152,57.5352,138.4648,44,121.828,44c-6.2264,0-12.1872,1.9296-17.1484,5.3556c1.3264-0.1408,2.664-0.2112,4.006-0.2112
		C129.7344,49.1444,146.8576,66.2696,146.8576,87.3164z"/>
	<path fill="none" d="M67.5352,78.8516c1.0312-0.8048,2.3924-1.0508,3.6388-0.676c1.25,0.3828,2.2344,1.3556,2.6344,2.6016
		l15.9944,49.762l15.3692-15.3672c0.9296-0.93,2.2536-1.34,3.5528-1.1056c1.2928,0.2384,2.3864,1.0976,2.9256,2.2968L136.5912,172
		H172V28H28v81.7924L67.5352,78.8516z M88.5096,55.5312C95.2636,43.4844,108.0292,36,121.828,36C142.8768,36,160,53.1248,160,74.172
		c0,13.8008-7.4844,26.5664-19.5312,33.3164c-0.6112,0.3436-1.2852,0.5116-1.9532,0.5116c-1.0372,0-2.0604-0.4024-2.83-1.172
		c-1.2676-1.2656-1.5372-3.2224-0.6604-4.7852c2.506-4.4724,3.8324-9.5664,3.8324-14.7264c0-16.6368-13.5352-30.172-30.172-30.172
		c-5.17,0-10.2616,1.3244-14.7268,3.832c-1.5664,0.8752-3.5172,0.6056-4.7868-0.66C87.9044,59.0508,87.6348,57.0976,88.5096,55.5312
		z"/>
	<path fill="none" d="M90.828,140.828c-0.9824,0.9844-2.412,1.4064-3.7676,1.0588c-1.3552-0.3284-2.4412-1.336-2.8688-2.664
		L67.9472,88.6876L28,119.9472V172h99.8244l-21.0996-47.0664L90.828,140.828z"/>
	<path fill="none" d="M8,192h184V8H8V192z M20,24c0-2.2108,1.7912-4,4-4h152c2.2088,0,4,1.7892,4,4v152c0,2.2108-1.7912,4-4,4h-42
		H24c-2.2088,0-4-1.7892-4-4V24z"/>
	<path d="M196,0H4C1.7912,0,0,1.7892,0,4v192c0,2.2108,1.7912,4,4,4h192c2.2088,0,4-1.7892,4-4V4C200,1.7892,198.2088,0,196,0z
		 M192,192H8V8h184V192z"/>
	<path d="M93.9588,60.9764c4.4652-2.5076,9.5568-3.832,14.7268-3.832c16.6368,0,30.172,13.5352,30.172,30.172
		c0,5.16-1.3264,10.254-3.8324,14.7264c-0.8768,1.5628-0.6072,3.5196,0.6604,4.7852c0.7696,0.7696,1.7928,1.172,2.83,1.172
		c0.668,0,1.342-0.168,1.9532-0.5116C152.5156,100.7384,160,87.9728,160,74.172C160,53.1248,142.8768,36,121.828,36
		c-13.7988,0-26.5644,7.4844-33.3184,19.5312c-0.8748,1.5664-0.6052,3.5196,0.6624,4.7852
		C90.4416,61.582,92.3924,61.8516,93.9588,60.9764z M121.828,44C138.4648,44,152,57.5352,152,74.172
		c0,6.2264-1.9276,12.1872-5.3536,17.1484c0.1408-1.3284,0.2112-2.664,0.2112-4.004c0-21.0468-17.1232-38.172-38.172-38.172
		c-1.342,0-2.6796,0.0704-4.006,0.2112C109.6408,45.9296,115.6016,44,121.828,44z"/>
	<path d="M24,180h110h42c2.2088,0,4-1.7892,4-4V24c0-2.2108-1.7912-4-4-4H24c-2.2088,0-4,1.7892-4,4v152
		C20,178.2108,21.7912,180,24,180z M28,172v-52.0528l39.9472-31.2596l16.2444,50.5352c0.4276,1.328,1.5136,2.3356,2.8688,2.664
		c1.3556,0.3476,2.7852-0.0744,3.7676-1.0588l15.8968-15.8944L127.8244,172H28z M172,28v144h-35.4088l-24.9408-55.6368
		c-0.5392-1.1992-1.6328-2.0584-2.9256-2.2968c-1.2992-0.2344-2.6232,0.1756-3.5528,1.1056l-15.3692,15.3672l-15.9944-49.762
		c-0.4-1.246-1.3844-2.2188-2.6344-2.6016c-1.2464-0.3748-2.6076-0.1288-3.6388,0.676L28,109.7924V28H172z"/>
</g>
</svg>
