<?xml version="1.0" encoding="utf-8"?>
<!-- Generator: Adobe Illustrator 19.2.0, SVG Export Plug-In . SVG Version: 6.00 Build 0)  -->
<svg version="1.1" id="femaleavatar" xmlns="http://www.w3.org/2000/svg" xmlns:xlink="http://www.w3.org/1999/xlink" x="0px"
	 y="0px" viewBox="0 0 224 224" enable-background="new 0 0 224 224" xml:space="preserve">
<g>
	<path fill="none" d="M115.9452,44h-11.8904c-15.1252,0-27.4296,12.3049-27.4296,27.4297v9.2968
		c0,13.5628-5.4708,37.2188-7.7696,46.5588C75.746,128.8985,91.4316,132,110,132s34.254-3.1015,41.1444-4.7147
		c-2.2988-9.34-7.7692-32.996-7.7692-46.5588v-9.2968C143.3752,56.3049,131.0704,44,115.9452,44z"/>
	<path fill="none" d="M172,176.9101c0-8.32-7.3028-15.0896-16.2772-15.0896h-21.4492c-1.5488,0-2.9592-0.8948-3.6192-2.2968
		l-9.362-19.884C117.686,139.86,113.922,140,110,140c-3.8792,0-7.6036-0.1371-11.1744-0.3531l-8.1028,19.6968
		c-0.6172,1.4963-2.0784,2.4768-3.6992,2.4768H68.2772c-8.9744,0-16.2772,6.7696-16.2772,15.0896v19.9576
		C68.9672,208.8981,89.6636,216,112,216s43.0328-7.1019,60-19.1323V176.9101z"/>
	<path fill="none" d="M112,8C54.6544,8,8,54.6525,8,112c0,31.3637,13.974,59.5061,36,78.5897v-13.6796
		c0-12.7304,10.8908-23.0896,24.2772-23.0896h16.0664l6.1112-14.8565c-16.0212-1.6611-26.95-4.7595-27.566-4.9367
		c-2.084-0.6016-3.3068-2.7576-2.758-4.8553c0.084-0.3243,8.4944-32.668,8.4944-48.4455v-9.2968
		C68.6252,51.8945,84.5196,36,104.0548,36h11.8904c19.5352,0,35.43,15.8945,35.43,35.4297v9.2968
		c0,15.7775,8.41,48.1212,8.494,48.4455c0.5488,2.0977-0.674,4.2537-2.758,4.8553c-0.6128,0.176-11.4292,3.2412-27.308,4.9087
		l7.0072,14.8845h18.9124c13.3864,0,24.2772,10.3592,24.2772,23.0896v13.6796c22.026-19.0836,36-47.226,36-78.5897
		C216,54.6525,169.3456,8,112,8z"/>
	<path d="M112,0C50.242,0,0,50.2421,0,112c0,61.7581,50.242,112,112,112s112-50.2419,112-112C224,50.2421,173.758,0,112,0z
		 M52,196.8677v-19.9576c0-8.32,7.3028-15.0896,16.2772-15.0896h18.7464c1.6208,0,3.082-0.9805,3.6992-2.4768l8.1028-19.6968
		C102.3964,139.8629,106.1208,140,110,140c3.922,0,7.686-0.14,11.2924-0.3603l9.362,19.884c0.66,1.402,2.0704,2.2968,3.6192,2.2968
		h21.4492c8.9744,0,16.2772,6.7696,16.2772,15.0896v19.9576C155.0328,208.8981,134.3364,216,112,216S68.9672,208.8981,52,196.8677z
		 M151.1444,127.2853C144.254,128.8985,128.5684,132,110,132s-34.254-3.1015-41.1444-4.7147
		c2.2988-9.34,7.7696-32.996,7.7696-46.5588v-9.2968C76.6252,56.3049,88.9296,44,104.0548,44h11.8904
		c15.1252,0,27.43,12.3049,27.43,27.4297v9.2968C143.3752,94.2893,148.8456,117.9453,151.1444,127.2853z M180,190.5897v-13.6796
		c0-12.7304-10.8908-23.0896-24.2772-23.0896h-18.9124l-7.0072-14.8845c15.8788-1.6675,26.6952-4.7327,27.308-4.9087
		c2.084-0.6016,3.3068-2.7576,2.758-4.8553c-0.084-0.3243-8.494-32.668-8.494-48.4455v-9.2968
		c0-19.5352-15.8948-35.4297-35.43-35.4297h-11.8904c-19.5352,0-35.4296,15.8945-35.4296,35.4297v9.2968
		c0,15.7775-8.4104,48.1212-8.4944,48.4455c-0.5488,2.0977,0.674,4.2537,2.758,4.8553c0.616,0.1772,11.5448,3.2756,27.566,4.9367
		l-6.1112,14.8565H68.2772C54.8908,153.8205,44,164.1797,44,176.9101v13.6796C21.974,171.5061,8,143.3637,8,112
		C8,54.6525,54.6544,8,112,8s104,46.6525,104,104C216,143.3637,202.026,171.5061,180,190.5897z"/>
</g>
</svg>
